<svg width="512" height="512" viewBox="0 0 512 512" fill="none" xmlns="http://www.w3.org/2000/svg">
<g clip-path="url(#clip0_24_6)">
<rect width="512" height="512" fill="#16161A"/>
<path d="M253.186 86.1565L202.151 240.955L258.056 429H165.94L129.94 282.037V429H40.788V86.1565H129.94V219.355L169.54 86.1565H253.186ZM473.842 235.661H384.69V175.944C384.69 158.579 383.702 147.779 381.726 143.544C379.89 139.168 375.726 136.98 369.232 136.98C361.891 136.98 357.232 139.591 355.255 144.815C353.279 150.038 352.291 161.332 352.291 178.697V337.942C352.291 354.601 353.279 365.471 355.255 370.554C357.232 375.636 361.679 378.177 368.596 378.177C375.232 378.177 379.537 375.636 381.514 370.554C383.632 365.471 384.69 353.542 384.69 334.766V291.778H473.842V305.119C473.842 340.554 471.301 365.683 466.219 380.506C461.278 395.33 450.196 408.318 432.972 419.471C415.89 430.624 394.784 436.2 369.655 436.2C343.538 436.2 322.009 431.471 305.068 422.012C288.127 412.553 276.903 399.494 271.397 382.836C265.892 366.036 263.139 340.836 263.139 307.237V207.073C263.139 182.367 263.986 163.873 265.68 151.591C267.374 139.168 272.386 127.238 280.715 115.803C289.185 104.368 300.832 95.4035 315.656 88.9094C330.62 82.2742 347.773 78.9566 367.114 78.9566C393.373 78.9566 415.043 84.0389 432.125 94.2035C449.207 104.368 460.431 117.074 465.795 132.321C471.16 147.426 473.842 171.003 473.842 203.049V235.661Z" fill="white"/>
</g>
<defs>
<clipPath id="clip0_24_6">
<rect width="512" height="512" fill="white"/>
</clipPath>
</defs>
</svg>
