<svg width="674" height="145" viewBox="0 0 674 145" fill="none" xmlns="http://www.w3.org/2000/svg">
<path d="M85.9944 2.91502L65.3317 65.5889L87.9664 141.724H50.6707L36.0954 82.2219V141.724H1.85072e-05V2.91502H36.0954V56.8437L52.1282 2.91502H85.9944ZM130.406 2.91502V113.945H152.355V141.724H94.3109V2.91502H130.406ZM161.186 2.91502H221.373V30.6939H197.281V57.0152H219.83V83.4222H197.281V113.945H223.774V141.724H161.186V2.91502ZM296.565 2.91502L317.228 141.724H280.275L278.474 116.774H265.528L263.385 141.724H226.003L244.351 2.91502H296.565ZM277.446 92.1674C275.616 76.4489 273.787 57.0438 271.958 33.9519C268.3 60.4732 266.014 79.8784 265.099 92.1674H277.446ZM407.68 63.4455H371.585V39.2676C371.585 32.2371 371.185 27.8645 370.385 26.1498C369.642 24.3779 367.955 23.4919 365.326 23.4919C362.354 23.4919 360.468 24.5494 359.667 26.6642C358.867 28.7791 358.467 33.3517 358.467 40.3822V104.857C358.467 111.601 358.867 116.002 359.667 118.06C360.468 120.118 362.268 121.147 365.069 121.147C367.755 121.147 369.499 120.118 370.299 118.06C371.156 116.002 371.585 111.172 371.585 103.57V86.1658H407.68V91.5673C407.68 105.914 406.651 116.088 404.594 122.09C402.593 128.091 398.106 133.35 391.133 137.865C384.217 142.381 375.672 144.639 365.498 144.639C354.923 144.639 346.207 142.724 339.348 138.894C332.489 135.065 327.945 129.777 325.716 123.033C323.486 116.231 322.372 106.028 322.372 92.4246V51.871C322.372 41.8683 322.715 34.3806 323.401 29.4078C324.087 24.3779 326.116 19.548 329.488 14.9182C332.917 10.2884 337.633 6.65888 343.635 4.02961C349.693 1.34317 356.638 -4.15817e-05 364.469 -4.15817e-05C375.1 -4.15817e-05 383.874 2.05765 390.79 6.17304C397.706 10.2884 402.25 15.4327 404.422 21.6057C406.594 27.7216 407.68 37.2671 407.68 50.2419V63.4455ZM503.106 84.1939C503.106 98.1404 502.763 108.029 502.077 113.859C501.448 119.632 499.39 124.919 495.904 129.72C492.474 134.522 487.816 138.208 481.929 140.78C476.041 143.353 469.182 144.639 461.352 144.639C453.921 144.639 447.234 143.438 441.289 141.038C435.402 138.58 430.658 134.922 427.057 130.063C423.456 125.205 421.313 119.918 420.627 114.202C419.941 108.486 419.598 98.4834 419.598 84.1939V60.4447C419.598 46.4981 419.912 36.6383 420.541 30.8653C421.227 25.0352 423.284 19.7195 426.714 14.9182C430.201 10.1169 434.888 6.43025 440.775 3.85813C446.662 1.28602 453.521 -4.15817e-05 461.352 -4.15817e-05C468.782 -4.15817e-05 475.441 1.22886 481.329 3.68666C487.273 6.0873 492.046 9.71684 495.647 14.5753C499.248 19.4337 501.391 24.7208 502.077 30.4367C502.763 36.1525 503.106 46.1551 503.106 60.4447V84.1939ZM467.01 38.5817C467.01 32.1228 466.639 28.0074 465.896 26.2355C465.21 24.4065 463.752 23.4919 461.523 23.4919C459.637 23.4919 458.179 24.235 457.151 25.7211C456.179 27.1501 455.693 31.4369 455.693 38.5817V103.399C455.693 111.458 456.007 116.431 456.636 118.317C457.322 120.203 458.865 121.147 461.266 121.147C463.724 121.147 465.296 120.061 465.982 117.889C466.667 115.717 467.01 110.544 467.01 102.37V38.5817ZM516.652 2.91502H542.202C559.235 2.91502 570.752 3.57234 576.754 4.88698C582.813 6.20161 587.728 9.57394 591.501 15.004C595.33 20.3768 597.245 28.9791 597.245 40.8109C597.245 51.6137 595.902 58.8728 593.216 62.5881C590.529 66.3034 585.242 68.5325 577.354 69.2756C584.499 71.0475 589.3 73.4196 591.758 76.3918C594.216 79.364 595.73 82.1076 596.302 84.6226C596.931 87.0804 597.245 93.9107 597.245 105.114V141.724H563.722V95.5969C563.722 88.1664 563.122 83.5651 561.921 81.7932C560.778 80.0213 557.72 79.1354 552.748 79.1354V141.724H516.652V2.91502ZM552.748 26.6642V57.5296C556.806 57.5296 559.635 56.9866 561.236 55.9006C562.893 54.7574 563.722 51.1279 563.722 45.012V37.3814C563.722 32.9802 562.922 30.0937 561.321 28.7219C559.778 27.3501 556.92 26.6642 552.748 26.6642ZM611.306 2.91502H671.494V30.6939H647.401V57.0152H669.95V83.4222H647.401V113.945H673.894V141.724H611.306V2.91502Z" fill="white"/>
</svg>
